<svg xmlns="http://www.w3.org/2000/svg" width="48" height="48" viewBox="0 0 48 48" fill="none">
  <rect width="48" height="48" rx="12" fill="#7c3aed"/>
  <path d="M24 8C24 8 28 14 28 20C28 26 24 30 24 30C24 30 20 26 20 20C20 14 24 8 24 8Z" fill="#fbbf24" stroke="#f59e0b" stroke-width="1"/>
  <path d="M24 14C24 14 27 18 27 22C27 26 24 28 24 28C24 28 21 26 21 22C21 18 24 14 24 14Z" fill="#fb923c"/>
  <path d="M16 18C16 18 20 22 22 26C24 30 22 34 22 34C22 34 18 30 16 26C14 22 16 18 16 18Z" fill="#fbbf24" opacity="0.7"/>
  <path d="M32 18C32 18 28 22 26 26C24 30 26 34 26 34C26 34 30 30 32 26C34 22 32 18 32 18Z" fill="#fbbf24" opacity="0.7"/>
  <circle cx="24" cy="38" r="3" fill="#fbbf24" opacity="0.5"/>
</svg>
